# xmcd
#
# Track frame offsets:
#	150
#	16473
#	39108
#	61473
#
# Disc length: 1026 seconds
#
# Revision: 2
# Processed by: cddbd v1.5.2PL0 Copyright (c) Steve Scherf et al.
# Submitted via: EasyCDDAExtractor 11.0.2.1
#
DISCID=28040004
DTITLE=Ricky Ricardo - Swingaling (1996)
DYEAR=1996
DGENRE=Pop
TTITLE0=Swingaling (Radio Mix)
TTITLE1=Swingaling (Extended Mix)
TTITLE2=Swingaling (Club Remix)
TTITLE3=Swingaling (Acapella)
EXTD=
EXTT0=
EXTT1=
EXTT2=
EXTT3=
PLAYORDER=
